<svg width="15" height="15" viewBox="0 0 15 15" fill="none" xmlns="http://www.w3.org/2000/svg">
<path d="M6.88025 0.81037C7.0766 0.348437 7.17482 0.117471 7.31155 0.0463462C7.43029 -0.0154487 7.56973 -0.0154487 7.68847 0.0463462C7.8252 0.117471 7.92342 0.348437 8.11977 0.81037L9.68379 4.48973C9.74189 4.62628 9.7709 4.69456 9.81585 4.74685C9.85555 4.79311 9.90415 4.83012 9.95834 4.85545C10.0197 4.88409 10.0906 4.89193 10.2324 4.90762L14.0528 5.33045C14.5324 5.38353 14.7722 5.41007 14.879 5.52443C14.9717 5.62377 15.0148 5.76287 14.9955 5.90041C14.9732 6.05872 14.7941 6.22797 14.4358 6.56656L11.582 9.26338C11.4761 9.36344 11.4231 9.41351 11.3896 9.47443C11.3599 9.52842 11.3414 9.58827 11.3352 9.65018C11.3281 9.72017 11.3429 9.79328 11.3725 9.93958L12.1696 13.8802C12.2697 14.375 12.3197 14.6223 12.249 14.7641C12.1875 14.8874 12.0747 14.9733 11.944 14.9965C11.7935 15.0232 11.5846 14.8969 11.1668 14.6442L7.83902 12.6315C7.71553 12.5568 7.65378 12.5195 7.58813 12.5049C7.53003 12.492 7.46998 12.492 7.41188 12.5049C7.34623 12.5195 7.28449 12.5568 7.16099 12.6315L3.83322 14.6442C3.41542 14.8969 3.20653 15.0232 3.05605 14.9965C2.92534 14.9733 2.8125 14.8874 2.75106 14.7641C2.68033 14.6223 2.73036 14.375 2.83044 13.8802L3.62752 9.93958C3.6571 9.79328 3.67189 9.72017 3.66487 9.65018C3.65865 9.58827 3.6401 9.52842 3.61042 9.47443C3.57687 9.41351 3.52391 9.36344 3.418 9.26338L0.564232 6.56656C0.205956 6.22797 0.026814 6.05872 0.00454106 5.90041C-0.0147972 5.76287 0.0282984 5.62377 0.121037 5.52443C0.227805 5.41007 0.467625 5.38353 0.947265 5.33045L4.76767 4.90762C4.90947 4.89193 4.98036 4.88409 5.04166 4.85545C5.0959 4.83012 5.14447 4.79311 5.18421 4.74685C5.22913 4.69456 5.25815 4.62628 5.31621 4.48973L6.88025 0.81037Z" fill="#ECC64B"/>
</svg>
